<svg xmlns="http://www.w3.org/2000/svg" viewBox="1.04 0.32 105.76 68.64" width="212" height="137">
  <path fill="#111111" d="M5.92 64L5.92 22.24L16.16 22.24L16.16 64L5.92 64ZM41.36 64L35.84 64Q30.56 64 28.08 61.36Q25.6 58.72 25.6 53.92L25.6 53.92L25.6 4.8L35.84 4.8L35.84 55.84L41.36 55.84L41.36 64ZM46.72 64L46.72 22.24L56.96 22.24L56.96 64L46.72 64ZM102.8 64L97.12 64Q93.76 64 91.8 62.04Q89.84 60.08 89.36 56.8L89.36 56.8L88.88 56.8Q87.84 60.88 84.64 62.92Q81.44 64.96 76.72 64.96L76.72 64.96Q70.32 64.96 66.88 61.6Q63.44 58.24 63.44 52.64L63.44 52.64Q63.44 46.16 68.08 43Q72.72 39.84 81.28 39.84L81.28 39.84L88.4 39.84L88.4 36.8Q88.4 33.28 86.56 31.36Q84.72 29.44 80.64 29.44L80.64 29.44Q77.04 29.44 74.84 31Q72.64 32.56 71.12 34.72L71.12 34.72L65.04 29.28Q67.36 25.68 71.2 23.48Q75.04 21.28 81.36 21.28L81.36 21.28Q89.84 21.28 94.24 25.12Q98.64 28.96 98.64 36.16L98.64 36.16L98.64 55.84L102.8 55.84L102.8 64ZM80.16 57.52L80.16 57.52Q83.6 57.52 86 56Q88.4 54.48 88.4 51.52L88.4 51.52L88.4 46L81.84 46Q73.84 46 73.84 51.12L73.84 51.12L73.84 52.48Q73.84 55.04 75.48 56.28Q77.12 57.52 80.16 57.52ZM51.84 16.16L51.84 16.16Q48.64 16.16 47.24 14.72Q45.84 13.28 45.84 11.04L45.84 11.04L45.84 9.44Q45.84 7.2 47.24 5.76Q48.64 4.32 51.84 4.32L51.84 4.32Q54.96 4.32 56.4 5.76Q57.84 7.2 57.84 9.44L57.84 9.44L57.84 11.04Q57.84 13.28 56.4 14.72Q54.96 16.16 51.84 16.16Z"></path>
  <path fill="#E94B1F" d="M11.04 16.16L11.04 16.16Q7.84 16.16 6.44 14.72Q5.04 13.28 5.04 11.04L5.04 11.04L5.04 9.44Q5.04 7.2 6.44 5.76Q7.84 4.32 11.04 4.32L11.04 4.32Q14.16 4.32 15.6 5.76Q17.04 7.2 17.04 9.44L17.04 9.44L17.04 11.04Q17.04 13.28 15.6 14.72Q14.16 16.16 11.04 16.16Z"></path>
</svg>